<svg width="34" height="32" viewBox="0 0 34 32" fill="none" xmlns="http://www.w3.org/2000/svg">
<path d="M24.25 17.1505C25.5 17.1505 26.6 16.5113 27.1667 15.5446L33.1333 5.42581C33.75 4.39677 32.95 3.11828 31.6833 3.11828H7.01667L5.45 0H0V3.11828H3.33333L9.33333 14.9521L7.08333 18.7564C5.86667 20.8457 7.46667 23.3871 10 23.3871H30V20.2688H10L11.8333 17.1505H24.25ZM8.6 6.23656H28.85L24.25 14.0323H12.55L8.6 6.23656ZM10 24.9462C8.16667 24.9462 6.68333 26.3495 6.68333 28.0645C6.68333 29.7796 8.16667 31.1828 10 31.1828C11.8333 31.1828 13.3333 29.7796 13.3333 28.0645C13.3333 26.3495 11.8333 24.9462 10 24.9462ZM26.6667 24.9462C24.8333 24.9462 23.35 26.3495 23.35 28.0645C23.35 29.7796 24.8333 31.1828 26.6667 31.1828C28.5 31.1828 30 29.7796 30 28.0645C30 26.3495 28.5 24.9462 26.6667 24.9462Z" fill="white"/>
</svg>
