<svg width="35" height="35" viewBox="0 0 35 35" fill="none" xmlns="http://www.w3.org/2000/svg">
<path d="M14.0587 11.1415C14.3941 10.4123 14.5837 9.61025 14.5837 8.74984C14.5837 5.52692 11.9732 2.9165 8.75033 2.9165C5.52741 2.9165 2.91699 5.52692 2.91699 8.74984C2.91699 11.9728 5.52741 14.5832 8.75033 14.5832C9.61074 14.5832 10.4128 14.3936 11.142 14.0582L14.5837 17.4998L11.142 20.9415C10.4128 20.6061 9.61074 20.4165 8.75033 20.4165C5.52741 20.4165 2.91699 23.0269 2.91699 26.2498C2.91699 29.4728 5.52741 32.0832 8.75033 32.0832C11.9732 32.0832 14.5837 29.4728 14.5837 26.2498C14.5837 25.3894 14.3941 24.5873 14.0587 23.8582L17.5003 20.4165L27.7087 30.6248H32.0837V29.1665L14.0587 11.1415ZM8.75033 11.6665C7.14616 11.6665 5.83366 10.3686 5.83366 8.74984C5.83366 7.13109 7.14616 5.83317 8.75033 5.83317C10.3545 5.83317 11.667 7.13109 11.667 8.74984C11.667 10.3686 10.3545 11.6665 8.75033 11.6665ZM8.75033 29.1665C7.14616 29.1665 5.83366 27.8686 5.83366 26.2498C5.83366 24.6311 7.14616 23.3332 8.75033 23.3332C10.3545 23.3332 11.667 24.6311 11.667 26.2498C11.667 27.8686 10.3545 29.1665 8.75033 29.1665ZM17.5003 18.229C17.092 18.229 16.7712 17.9082 16.7712 17.4998C16.7712 17.0915 17.092 16.7707 17.5003 16.7707C17.9087 16.7707 18.2295 17.0915 18.2295 17.4998C18.2295 17.9082 17.9087 18.229 17.5003 18.229ZM27.7087 4.37484L18.9587 13.1248L21.8753 16.0415L32.0837 5.83317V4.37484H27.7087Z" fill="#FF7BBA"/>
</svg>
