<svg width="30" height="30" viewBox="0 0 30 30" fill="none" xmlns="http://www.w3.org/2000/svg">
<path d="M18.4625 10.3875L19.6125 11.5375L18.225 12.925L19.9875 14.6875L23.1375 11.5375L18.45 6.85L15.3 10L17.0625 11.7625L18.4625 10.3875ZM26.775 7.9125C27.2625 7.425 27.2625 6.6375 26.775 6.15L23.85 3.225C23.6 2.975 23.2875 2.8625 22.9625 2.8625C22.6375 2.8625 22.325 2.9875 22.0875 3.225L19.8 5.5125L24.4875 10.2L26.775 7.9125ZM4.4 2.625L2.625 4.3875L11.775 13.5375L4.6375 20.675V25.3625H9.325L16.4625 18.225L25.6125 27.375L27.375 25.6125L4.4 2.625ZM8.2875 22.8625H7.1375V21.7125L13.55 15.3L14.7 16.45L8.2875 22.8625Z" fill="#FF7BBA"/>
</svg>
