<svg width="22" height="22" viewBox="0 0 22 22" fill="none" xmlns="http://www.w3.org/2000/svg">
<circle cx="11" cy="11" r="11" fill="#E0E0E0"/>
<path d="M6.85156 7.76562C6.89062 6.58073 7.30729 5.6237 8.10156 4.89453C8.90234 4.15885 10.0091 3.79102 11.4219 3.79102C12.75 3.79102 13.8242 4.13607 14.6445 4.82617C15.4714 5.51628 15.8848 6.40169 15.8848 7.48242C15.8848 8.88216 15.1947 9.99219 13.8145 10.8125C13.1764 11.1836 12.7435 11.5254 12.5156 11.8379C12.2878 12.1504 12.1738 12.5508 12.1738 13.0391V13.6055H9.9082L9.89844 12.9121C9.85286 12.2025 9.97331 11.6068 10.2598 11.125C10.5527 10.6432 11.041 10.2005 11.7246 9.79688C12.3366 9.42578 12.7598 9.08398 12.9941 8.77148C13.2285 8.45247 13.3457 8.05208 13.3457 7.57031C13.3457 7.04948 13.1569 6.62305 12.7793 6.29102C12.4017 5.95247 11.9069 5.7832 11.2949 5.7832C10.6699 5.7832 10.1654 5.96224 9.78125 6.32031C9.39714 6.67839 9.18555 7.16016 9.14648 7.76562H6.85156ZM12.0762 17.7949C11.8027 18.0618 11.4674 18.1953 11.0703 18.1953C10.6732 18.1953 10.3346 18.0618 10.0547 17.7949C9.78125 17.5215 9.64453 17.1927 9.64453 16.8086C9.64453 16.4245 9.78125 16.099 10.0547 15.832C10.3346 15.5651 10.6732 15.4316 11.0703 15.4316C11.4674 15.4316 11.8027 15.5651 12.0762 15.832C12.3496 16.099 12.4863 16.4245 12.4863 16.8086C12.4863 17.1927 12.3496 17.5215 12.0762 17.7949Z" fill="#828282"/>
</svg>
