<svg width="35" height="35" viewBox="0 0 35 35" fill="none" xmlns="http://www.w3.org/2000/svg">
<path d="M24.3101 19.1478C26.308 20.5041 27.708 22.3416 27.708 24.7916V29.1666H33.5413V24.7916C33.5413 21.6124 28.3351 19.7312 24.3101 19.1478Z" fill="white"/>
<path d="M21.8747 17.4999C25.0976 17.4999 27.708 14.8895 27.708 11.6666C27.708 8.44367 25.0976 5.83325 21.8747 5.83325C21.1893 5.83325 20.5476 5.97908 19.9351 6.18325C21.1455 7.68533 21.8747 9.59575 21.8747 11.6666C21.8747 13.7374 21.1455 15.6478 19.9351 17.1499C20.5476 17.3541 21.1893 17.4999 21.8747 17.4999Z" fill="white"/>
<path d="M13.1247 17.4999C16.3476 17.4999 18.958 14.8895 18.958 11.6666C18.958 8.44367 16.3476 5.83325 13.1247 5.83325C9.90176 5.83325 7.29134 8.44367 7.29134 11.6666C7.29134 14.8895 9.90176 17.4999 13.1247 17.4999ZM13.1247 8.74992C14.7288 8.74992 16.0413 10.0624 16.0413 11.6666C16.0413 13.2708 14.7288 14.5833 13.1247 14.5833C11.5205 14.5833 10.208 13.2708 10.208 11.6666C10.208 10.0624 11.5205 8.74992 13.1247 8.74992Z" fill="white"/>
<path d="M13.1247 18.9583C9.23092 18.9583 1.45801 20.9124 1.45801 24.7916V29.1666H24.7913V24.7916C24.7913 20.9124 17.0184 18.9583 13.1247 18.9583ZM21.8747 26.2499H4.37467V24.8062C4.66634 23.7562 9.18717 21.8749 13.1247 21.8749C17.0622 21.8749 21.583 23.7562 21.8747 24.7916V26.2499Z" fill="white"/>
</svg>
