<svg width="24" height="25" viewBox="0 0 24 25" fill="none" xmlns="http://www.w3.org/2000/svg">
<path d="M12 3.75001C13.5583 3.75001 14.8333 5.06251 14.8333 6.66668C14.8333 8.27084 13.5583 9.58334 12 9.58334C10.4417 9.58334 9.16666 8.27084 9.16666 6.66668C9.16666 5.06251 10.4417 3.75001 12 3.75001ZM12 18.3333C15.825 18.3333 20.2167 20.2146 20.5 21.25H3.49999C3.82582 20.2 8.18916 18.3333 12 18.3333ZM12 0.833344C8.86916 0.833344 6.33332 3.44376 6.33332 6.66668C6.33332 9.88959 8.86916 12.5 12 12.5C15.1308 12.5 17.6667 9.88959 17.6667 6.66668C17.6667 3.44376 15.1308 0.833344 12 0.833344ZM12 15.4167C8.21749 15.4167 0.666656 17.3708 0.666656 21.25V24.1667H23.3333V21.25C23.3333 17.3708 15.7825 15.4167 12 15.4167Z" fill="#BDBDBD"/>
</svg>
