<svg width="25" height="31" viewBox="0 0 25 31" fill="none" xmlns="http://www.w3.org/2000/svg">
<path d="M12.5 15.5C10.8958 15.5 9.58334 14.1875 9.58334 12.5834C9.58334 10.9792 10.8958 9.66669 12.5 9.66669C14.1042 9.66669 15.4167 10.9792 15.4167 12.5834C15.4167 14.1875 14.1042 15.5 12.5 15.5ZM21.25 12.875C21.25 7.58127 17.3854 3.83335 12.5 3.83335C7.61459 3.83335 3.75001 7.58127 3.75001 12.875C3.75001 16.2875 6.59376 20.8084 12.5 26.2042C18.4063 20.8084 21.25 16.2875 21.25 12.875ZM12.5 0.916687C18.625 0.916687 24.1667 5.61252 24.1667 12.875C24.1667 17.7167 20.2729 23.4479 12.5 30.0834C4.72709 23.4479 0.833344 17.7167 0.833344 12.875C0.833344 5.61252 6.37501 0.916687 12.5 0.916687Z" fill="#BDBDBD"/>
</svg>
