<svg width="35" height="35" viewBox="0 0 35 35" fill="none" xmlns="http://www.w3.org/2000/svg">
<path d="M14.0582 11.1417C14.3936 10.4126 14.5832 9.6105 14.5832 8.75008C14.5832 5.52716 11.9728 2.91675 8.74984 2.91675C5.52692 2.91675 2.9165 5.52716 2.9165 8.75008C2.9165 11.973 5.52692 14.5834 8.74984 14.5834C9.61025 14.5834 10.4123 14.3938 11.1415 14.0584L14.5832 17.5001L11.1415 20.9417C10.4123 20.6063 9.61025 20.4167 8.74984 20.4167C5.52692 20.4167 2.9165 23.0272 2.9165 26.2501C2.9165 29.473 5.52692 32.0834 8.74984 32.0834C11.9728 32.0834 14.5832 29.473 14.5832 26.2501C14.5832 25.3897 14.3936 24.5876 14.0582 23.8584L17.4998 20.4167L27.7082 30.6251H32.0832V29.1668L14.0582 11.1417ZM8.74984 11.6667C7.14567 11.6667 5.83317 10.3688 5.83317 8.75008C5.83317 7.13133 7.14567 5.83342 8.74984 5.83342C10.354 5.83342 11.6665 7.13133 11.6665 8.75008C11.6665 10.3688 10.354 11.6667 8.74984 11.6667ZM8.74984 29.1668C7.14567 29.1668 5.83317 27.8688 5.83317 26.2501C5.83317 24.6313 7.14567 23.3334 8.74984 23.3334C10.354 23.3334 11.6665 24.6313 11.6665 26.2501C11.6665 27.8688 10.354 29.1668 8.74984 29.1668ZM17.4998 18.2292C17.0915 18.2292 16.7707 17.9084 16.7707 17.5001C16.7707 17.0917 17.0915 16.7709 17.4998 16.7709C17.9082 16.7709 18.229 17.0917 18.229 17.5001C18.229 17.9084 17.9082 18.2292 17.4998 18.2292ZM27.7082 4.37508L18.9582 13.1251L21.8748 16.0417L32.0832 5.83342V4.37508H27.7082Z" fill="white"/>
</svg>
