<svg width="35" height="35" viewBox="0 0 35 35" fill="none" xmlns="http://www.w3.org/2000/svg">
<path d="M17.4998 2.91675C9.479 2.91675 2.9165 9.47925 2.9165 17.5001C2.9165 25.5209 9.479 32.0834 17.4998 32.0834C25.5207 32.0834 32.0832 25.5209 32.0832 17.5001C32.0832 9.47925 25.5207 2.91675 17.4998 2.91675ZM17.4998 29.1668C11.0686 29.1668 5.83317 23.9313 5.83317 17.5001C5.83317 11.0688 11.0686 5.83342 17.4998 5.83342C23.9311 5.83342 29.1665 11.0688 29.1665 17.5001C29.1665 23.9313 23.9311 29.1668 17.4998 29.1668ZM18.229 10.2084H16.0415V18.9584L23.6248 23.6251L24.7915 21.7292L18.229 17.7917V10.2084Z" fill="white"/>
</svg>
