<svg width="101" height="57" viewBox="0 0 101 57" fill="none" xmlns="http://www.w3.org/2000/svg">
<path d="M2 43L100 43" stroke="white"/>
<path d="M14.4 25.088C14.4 23.936 14.172 22.94 13.716 22.1C13.284 21.236 12.708 20.564 11.988 20.084C11.268 19.604 10.488 19.184 9.648 18.824L7.056 17.744C6.192 17.384 5.4 16.988 4.68 16.556C3.96 16.124 3.372 15.536 2.916 14.792C2.484 14.024 2.268 13.112 2.268 12.056C2.268 10.784 2.472 9.704 2.88 8.816C3.288 7.904 3.828 7.244 4.5 6.836C5.172 6.404 5.832 6.104 6.48 5.936C7.152 5.768 7.86 5.684 8.604 5.684C10.716 5.684 12.312 6.248 13.392 7.376C14.496 8.504 15.048 9.92 15.048 11.624C15.048 12.104 14.832 12.344 14.4 12.344C13.92 12.344 13.68 11.984 13.68 11.264C13.68 10.808 13.608 10.364 13.464 9.932C13.344 9.5 13.128 9.044 12.816 8.564C12.504 8.084 11.988 7.7 11.268 7.412C10.572 7.124 9.72 6.98 8.712 6.98C8.088 6.98 7.5 7.052 6.948 7.196C6.42 7.34 5.88 7.592 5.328 7.952C4.8 8.288 4.368 8.816 4.032 9.536C3.72 10.232 3.564 11.072 3.564 12.056C3.564 12.92 3.78 13.664 4.212 14.288C4.668 14.912 5.256 15.416 5.976 15.8C6.696 16.184 7.488 16.544 8.352 16.88C9.216 17.192 10.068 17.552 10.908 17.96C11.772 18.368 12.564 18.836 13.284 19.364C14.004 19.892 14.58 20.624 15.012 21.56C15.468 22.472 15.696 23.552 15.696 24.8C15.696 27.368 15.06 29.252 13.788 30.452C12.516 31.628 10.824 32.216 8.712 32.216C6.624 32.216 4.92 31.652 3.6 30.524C2.28 29.372 1.62 27.956 1.62 26.276C1.62 25.796 1.848 25.556 2.304 25.556C2.616 25.556 2.82 25.772 2.916 26.204C3.06 26.828 3.204 27.344 3.348 27.752C3.492 28.136 3.756 28.616 4.14 29.192C4.524 29.744 5.076 30.176 5.796 30.488C6.54 30.776 7.44 30.92 8.496 30.92C10.392 30.92 11.844 30.428 12.852 29.444C13.884 28.436 14.4 26.984 14.4 25.088ZM24.8268 6.98H18.4188C18.2268 6.98 18.0708 6.92 17.9508 6.8C17.8308 6.656 17.7708 6.5 17.7708 6.332C17.7708 6.164 17.8308 6.02 17.9508 5.9C18.0708 5.756 18.2268 5.684 18.4188 5.684H32.4948C32.9268 5.684 33.1428 5.888 33.1428 6.296C33.1428 6.752 32.9268 6.98 32.4948 6.98H26.1228V31.352C26.1228 31.784 25.9068 32 25.4748 32C25.0428 32 24.8268 31.784 24.8268 31.352V6.98ZM46.7623 31.532L45.1423 25.628H35.4583L33.8383 31.532C33.7663 31.844 33.5383 32 33.1543 32C32.7463 32 32.5423 31.808 32.5423 31.424C32.5423 31.352 32.5543 31.28 32.5783 31.208L39.6703 5.972C39.7663 5.636 39.9823 5.468 40.3183 5.468C40.6543 5.468 40.8823 5.636 41.0023 5.972L48.0223 31.208C48.0463 31.28 48.0583 31.352 48.0583 31.424C48.0583 31.808 47.8543 32 47.4463 32C47.0623 32 46.8343 31.844 46.7623 31.532ZM40.3183 8.204L35.8183 24.332H44.7823L40.3183 8.204ZM54.4987 6.98H48.0907C47.8987 6.98 47.7427 6.92 47.6227 6.8C47.5027 6.656 47.4427 6.5 47.4427 6.332C47.4427 6.164 47.5027 6.02 47.6227 5.9C47.7427 5.756 47.8987 5.684 48.0907 5.684H62.1667C62.5987 5.684 62.8147 5.888 62.8147 6.296C62.8147 6.752 62.5987 6.98 62.1667 6.98H55.7947V31.352C55.7947 31.784 55.5787 32 55.1467 32C54.7147 32 54.4987 31.784 54.4987 31.352V6.98ZM66.3353 24.8V6.296C66.3353 5.888 66.5513 5.684 66.9833 5.684C67.4153 5.684 67.6313 5.888 67.6313 6.296V24.8C67.6313 26.84 68.1233 28.376 69.1073 29.408C70.0913 30.416 71.5073 30.92 73.3553 30.92C75.2033 30.92 76.6193 30.416 77.6033 29.408C78.6113 28.376 79.1153 26.84 79.1153 24.8V6.296C79.1153 5.888 79.3313 5.684 79.7633 5.684C80.1953 5.684 80.4113 5.888 80.4113 6.296V24.8C80.4113 27.368 79.7633 29.252 78.4673 30.452C77.1953 31.628 75.4913 32.216 73.3553 32.216C71.2193 32.216 69.5153 31.628 68.2433 30.452C66.9713 29.252 66.3353 27.368 66.3353 24.8ZM97.6148 25.088C97.6148 23.936 97.3868 22.94 96.9308 22.1C96.4988 21.236 95.9228 20.564 95.2028 20.084C94.4828 19.604 93.7028 19.184 92.8628 18.824L90.2708 17.744C89.4068 17.384 88.6148 16.988 87.8948 16.556C87.1748 16.124 86.5868 15.536 86.1308 14.792C85.6988 14.024 85.4828 13.112 85.4828 12.056C85.4828 10.784 85.6868 9.704 86.0948 8.816C86.5028 7.904 87.0428 7.244 87.7148 6.836C88.3868 6.404 89.0468 6.104 89.6948 5.936C90.3668 5.768 91.0748 5.684 91.8188 5.684C93.9308 5.684 95.5268 6.248 96.6068 7.376C97.7108 8.504 98.2628 9.92 98.2628 11.624C98.2628 12.104 98.0468 12.344 97.6148 12.344C97.1348 12.344 96.8948 11.984 96.8948 11.264C96.8948 10.808 96.8228 10.364 96.6788 9.932C96.5588 9.5 96.3428 9.044 96.0308 8.564C95.7188 8.084 95.2028 7.7 94.4828 7.412C93.7868 7.124 92.9348 6.98 91.9268 6.98C91.3028 6.98 90.7148 7.052 90.1628 7.196C89.6348 7.34 89.0948 7.592 88.5428 7.952C88.0148 8.288 87.5828 8.816 87.2468 9.536C86.9348 10.232 86.7788 11.072 86.7788 12.056C86.7788 12.92 86.9948 13.664 87.4268 14.288C87.8828 14.912 88.4708 15.416 89.1908 15.8C89.9108 16.184 90.7028 16.544 91.5668 16.88C92.4308 17.192 93.2828 17.552 94.1228 17.96C94.9868 18.368 95.7788 18.836 96.4988 19.364C97.2188 19.892 97.7948 20.624 98.2268 21.56C98.6828 22.472 98.9108 23.552 98.9108 24.8C98.9108 27.368 98.2748 29.252 97.0028 30.452C95.7308 31.628 94.0388 32.216 91.9268 32.216C89.8388 32.216 88.1348 31.652 86.8148 30.524C85.4948 29.372 84.8348 27.956 84.8348 26.276C84.8348 25.796 85.0628 25.556 85.5188 25.556C85.8308 25.556 86.0348 25.772 86.1308 26.204C86.2748 26.828 86.4188 27.344 86.5628 27.752C86.7068 28.136 86.9708 28.616 87.3548 29.192C87.7388 29.744 88.2908 30.176 89.0108 30.488C89.7548 30.776 90.6548 30.92 91.7108 30.92C93.6068 30.92 95.0588 30.428 96.0668 29.444C97.0988 28.436 97.6148 26.984 97.6148 25.088Z" fill="white"/>
<path d="M7.918 51.029C8.468 51.1317 8.886 51.348 9.172 51.678C9.46533 52.008 9.612 52.437 9.612 52.965C9.612 53.6177 9.37367 54.12 8.897 54.472C8.42033 54.824 7.71267 55 6.774 55H3.342V47.3H6.554C7.39 47.3 8.039 47.4723 8.501 47.817C8.97033 48.1543 9.205 48.6383 9.205 49.269C9.205 49.709 9.08767 50.0793 8.853 50.38C8.62567 50.6807 8.314 50.897 7.918 51.029ZM3.903 47.784V50.853H6.532C7.20667 50.853 7.72367 50.7247 8.083 50.468C8.44967 50.204 8.633 49.819 8.633 49.313C8.633 48.8143 8.44967 48.4367 8.083 48.18C7.72367 47.916 7.20667 47.784 6.532 47.784H3.903ZM6.774 54.516C7.522 54.516 8.08667 54.3877 8.468 54.131C8.85667 53.867 9.051 53.4637 9.051 52.921C9.051 52.3783 8.85667 51.9787 8.468 51.722C8.08667 51.4653 7.522 51.337 6.774 51.337H3.903V54.516H6.774ZM18.0265 54.494V55H12.7135V47.3H17.8615V47.806H13.2745V50.842H17.3775V51.337H13.2745V54.494H18.0265ZM25.9349 52.833H21.4689L20.4899 55H19.8849L23.4269 47.3H23.9879L27.5299 55H26.9249L25.9349 52.833ZM25.7259 52.36L23.7019 47.916L21.6889 52.36H25.7259ZM32.8806 55.055C31.9053 55.055 31.1463 54.7727 30.6036 54.208C30.0683 53.6433 29.8006 52.8183 29.8006 51.733V47.3H30.3616V51.711C30.3616 52.657 30.5779 53.3647 31.0106 53.834C31.4433 54.3033 32.0703 54.538 32.8916 54.538C33.7056 54.538 34.3289 54.3033 34.7616 53.834C35.1943 53.3647 35.4106 52.657 35.4106 51.711V47.3H35.9716V51.733C35.9716 52.8183 35.7003 53.6433 35.1576 54.208C34.6149 54.7727 33.8559 55.055 32.8806 55.055ZM41.0129 47.806H38.2409V47.3H44.3459V47.806H41.5739V55H41.0129V47.806ZM49.1809 52.349V55H48.6199V52.349L45.5179 47.3H46.1339L48.9169 51.832L51.6999 47.3H52.2829L49.1809 52.349ZM60.7291 55.055C60.1644 55.055 59.6254 54.9597 59.1121 54.769C58.6061 54.571 58.2101 54.318 57.9241 54.01L58.1771 53.592C58.4484 53.878 58.8114 54.1127 59.2661 54.296C59.7281 54.472 60.2121 54.56 60.7181 54.56C61.4514 54.56 62.0051 54.4207 62.3791 54.142C62.7531 53.8633 62.9401 53.5003 62.9401 53.053C62.9401 52.7083 62.8411 52.4333 62.6431 52.228C62.4451 52.0227 62.1994 51.865 61.9061 51.755C61.6128 51.645 61.2168 51.5313 60.7181 51.414C60.1534 51.2747 59.6988 51.139 59.3541 51.007C59.0168 50.875 58.7271 50.6733 58.4851 50.402C58.2504 50.1233 58.1331 49.753 58.1331 49.291C58.1331 48.917 58.2321 48.576 58.4301 48.268C58.6281 47.9527 58.9288 47.7033 59.3321 47.52C59.7428 47.3367 60.2524 47.245 60.8611 47.245C61.2864 47.245 61.7044 47.3073 62.1151 47.432C62.5258 47.5567 62.8814 47.7253 63.1821 47.938L62.9731 48.389C62.6651 48.1763 62.3241 48.015 61.9501 47.905C61.5834 47.795 61.2204 47.74 60.8611 47.74C60.1498 47.74 59.6108 47.883 59.2441 48.169C58.8774 48.455 58.6941 48.8253 58.6941 49.28C58.6941 49.6247 58.7931 49.8997 58.9911 50.105C59.1891 50.3103 59.4348 50.468 59.7281 50.578C60.0214 50.688 60.4211 50.8053 60.9271 50.93C61.4918 51.0693 61.9428 51.205 62.2801 51.337C62.6174 51.469 62.9034 51.6707 63.1381 51.942C63.3801 52.206 63.5011 52.5653 63.5011 53.02C63.5011 53.394 63.3984 53.735 63.1931 54.043C62.9951 54.351 62.6871 54.5967 62.2691 54.78C61.8511 54.9633 61.3378 55.055 60.7291 55.055ZM71.2712 52.833H66.8052L65.8262 55H65.2212L68.7632 47.3H69.3242L72.8662 55H72.2612L71.2712 52.833ZM71.0622 52.36L69.0382 47.916L67.0252 52.36H71.0622ZM75.3641 47.3H75.9251V54.494H80.3581V55H75.3641V47.3ZM86.0153 55.055C85.2599 55.055 84.5779 54.8863 83.9693 54.549C83.3606 54.2043 82.8803 53.735 82.5283 53.141C82.1836 52.547 82.0113 51.8833 82.0113 51.15C82.0113 50.4167 82.1836 49.753 82.5283 49.159C82.8803 48.565 83.3606 48.0993 83.9693 47.762C84.5779 47.4173 85.2599 47.245 86.0153 47.245C86.7706 47.245 87.4526 47.4137 88.0613 47.751C88.6699 48.0883 89.1466 48.554 89.4913 49.148C89.8433 49.742 90.0193 50.4093 90.0193 51.15C90.0193 51.8907 89.8433 52.558 89.4913 53.152C89.1466 53.746 88.6699 54.2117 88.0613 54.549C87.4526 54.8863 86.7706 55.055 86.0153 55.055ZM86.0153 54.538C86.6606 54.538 87.2436 54.3913 87.7643 54.098C88.2849 53.8047 88.6956 53.4013 88.9963 52.888C89.2969 52.3673 89.4473 51.788 89.4473 51.15C89.4473 50.512 89.2969 49.9363 88.9963 49.423C88.6956 48.9023 88.2849 48.4953 87.7643 48.202C87.2436 47.9087 86.6606 47.762 86.0153 47.762C85.3699 47.762 84.7833 47.9087 84.2553 48.202C83.7346 48.4953 83.3239 48.9023 83.0232 49.423C82.7226 49.9363 82.5723 50.512 82.5723 51.15C82.5723 51.788 82.7226 52.3673 83.0232 52.888C83.3239 53.4013 83.7346 53.8047 84.2553 54.098C84.7833 54.3913 85.3699 54.538 86.0153 54.538ZM99.335 47.3V55H98.873L93.626 48.312V55H93.065V47.3H93.538L98.774 53.988V47.3H99.335Z" fill="white"/>
</svg>