<svg width="233" height="128" viewBox="0 0 233 128" fill="none" xmlns="http://www.w3.org/2000/svg">
<path fill-rule="evenodd" clip-rule="evenodd" d="M81.5468 80.7198C70.8818 90.1109 54.2648 86.5489 48.738 75.7964C47.0003 72.4113 46.7605 68.256 48.0713 64.5288C49.7489 59.7727 58.3318 52.628 63.732 55.982C69.5199 59.6185 56.2452 72.367 54.9046 74.6499C60.8425 71.0776 69.6478 62.7672 66.6732 55.3022C62.4646 45.5439 29.477 60.2515 46.1801 81.7599C55.0648 93.2026 74.2081 95.7244 86.4126 84.383C84.6491 83.2425 82.9965 82.0353 81.5468 80.7198ZM91.3167 78.3123C96.3509 69.5577 95.1622 59.4366 88.0059 52.1759C87.5681 52.4791 87.1154 52.8194 86.6459 53.2012C85.598 54.0534 84.6833 55.0285 83.9242 56.0938C88.3208 61.6197 90.4649 67.5684 86.4275 74.6932C86.6497 74.9071 86.8783 75.1166 87.1116 75.3202C88.2911 76.3482 89.7538 77.3536 91.3167 78.3123ZM83.9899 48.3404C78.3519 43.1728 71.4464 37.3895 68.4664 33.0457C65.5012 28.7268 63.7635 22.9004 65.5112 17.0747C67.0546 11.9314 70.927 8.09658 75.357 6.01569C83.0011 2.41904 86.3016 4.3252 93.832 5.16081C80.298 -3.83017 53.3288 8.88216 62.359 31.7034C65.2243 38.9449 73.4249 45.1362 79.898 51.6399C81.1126 50.4093 82.4912 49.2964 83.9899 48.3404ZM0 93.063C12.0657 92.5296 24.6082 92.9479 36.912 86.5333L39.0274 84.894C32.7366 86.6971 27.9968 88.7703 20.9747 90.1716C14.0154 91.5648 7.2128 91.9979 0 93.063ZM103.889 15.0586C102.771 21.0566 94.5041 36.6933 88.1781 31.3275C83.441 23.3446 100.063 5.54356 115.001 2.45805C119.711 1.30882 120.754 1.25085 132.369 0.972903C116.896 -3.01431 98.6219 5.78345 89.689 17.7094C74.7108 37.7022 101.663 41.6642 103.889 15.0586Z" fill="#333333"/>
<path fill-rule="evenodd" clip-rule="evenodd" d="M110.418 110.881C105.167 124.663 87.9673 126.448 79.5537 118.13C86.1666 114.05 95.4716 104.125 89.5328 96.1201C84.09 89.185 62.5388 105.088 74.2611 119.425C73.6333 119.745 72.9825 120.062 72.3012 120.378C66.6354 123.006 60.8807 124.778 54.9204 127.178C61.6379 125.255 68.6295 123.639 75.2053 120.494C76.0368 121.376 76.9939 122.252 78.102 123.113C89.2901 131.798 108.367 129.022 115.099 113.866C118.035 107.256 118.392 98.3682 111.957 92.7305C102.881 85.1329 91.8982 81.8603 85.849 76.587C82.282 73.4771 79.4149 68.8171 79.5518 63.4409C79.6732 58.6952 82.1061 54.5981 85.4315 51.8944C91.1695 47.2275 94.4598 48.1913 101.14 47.3616C87.3729 42.402 67.1372 58.8917 80.275 76.6867C89.1523 88.7113 117.741 91.6609 110.418 110.881ZM78.5502 117.037C76.4931 114.521 75.4432 111.181 75.684 107.887C76.0107 103.442 81.7468 95.4783 87.1775 97.3142C95.2717 100.001 83.9346 113.809 78.5502 117.037Z" fill="#333333"/>
<path fill-rule="evenodd" clip-rule="evenodd" d="M111.277 54.2257C112.024 63.3038 108.919 75.2782 96.8818 75.2782C103.384 83.5922 113.945 68.6008 111.277 54.2257Z" fill="#333333"/>
<path fill-rule="evenodd" clip-rule="evenodd" d="M131.508 126.562C130.171 126.562 129.025 126.071 128.07 125.09C127.115 124.109 126.638 122.705 126.638 120.879V108.859L124.264 108.94C124.1 108.94 123.964 108.866 123.855 108.715C123.746 108.566 123.691 108.395 123.691 108.205C123.691 107.959 123.739 107.748 123.834 107.571C123.93 107.394 124.073 107.291 124.264 107.264C125.219 107.073 125.963 106.767 126.494 106.344C127.027 105.922 127.415 105.458 127.661 104.954C127.906 104.45 128.206 103.68 128.561 102.644C128.697 102.29 128.998 102.112 129.462 102.112C129.653 102.112 129.843 102.16 130.034 102.256C130.225 102.351 130.321 102.494 130.321 102.685L130.034 107.346L134.822 107.06H134.904C135.259 107.06 135.436 107.319 135.436 107.837C135.436 108.137 135.388 108.416 135.293 108.675C135.198 108.934 135.082 109.063 134.945 109.063L130.362 108.94V121.37C130.362 122.269 130.546 123.019 130.914 123.618C131.282 124.218 131.889 124.518 132.735 124.518C133.581 124.518 134.331 124.368 134.986 124.068C135.341 123.932 135.559 123.863 135.641 123.863C135.832 123.863 135.982 123.939 136.091 124.088C136.201 124.238 136.309 124.436 136.418 124.681C136.446 124.736 136.46 124.804 136.46 124.886C136.46 124.995 136.377 125.118 136.214 125.254C135.423 125.771 134.679 126.119 133.983 126.296C133.288 126.474 132.463 126.562 131.508 126.562ZM149.617 126.358C147.98 126.358 146.657 125.894 145.647 124.967C144.638 124.041 144.133 122.882 144.133 121.492C144.133 119.775 144.706 118.487 145.852 117.629C146.998 116.77 148.362 116.211 149.944 115.952C151.526 115.693 153.573 115.496 156.083 115.36V112.13C156.083 110.794 155.749 109.779 155.08 109.083C154.412 108.388 153.341 108.041 151.868 108.041C151.022 108.041 150.285 108.3 149.658 108.818C149.03 109.335 148.716 110.031 148.716 110.903C148.716 111.339 148.819 111.7 149.023 111.987C149.228 112.272 149.446 112.511 149.678 112.702C149.91 112.893 150.026 113.002 150.026 113.029C150.026 113.192 149.856 113.404 149.514 113.663C149.174 113.922 148.757 114.051 148.266 114.051C147.448 114.051 146.8 113.751 146.322 113.152C145.845 112.552 145.607 111.843 145.607 111.026C145.607 109.608 146.241 108.559 147.509 107.878C148.778 107.196 150.312 106.855 152.113 106.855C154.35 106.855 156.172 107.278 157.577 108.123C158.982 108.968 159.684 110.535 159.684 112.824V122.351C159.712 122.923 159.889 123.469 160.216 123.986C160.543 124.504 161.076 124.763 161.812 124.763C162.03 124.763 162.187 124.804 162.283 124.886C162.378 124.967 162.426 125.145 162.426 125.417C162.426 125.744 162.174 125.983 161.669 126.133C161.164 126.283 160.666 126.358 160.175 126.358C159.138 126.358 158.224 126.058 157.433 125.458C156.642 124.859 156.192 124.054 156.083 123.046C155.51 124.109 154.63 124.927 153.443 125.499C152.256 126.071 150.981 126.358 149.617 126.358ZM150.926 124.15C151.854 124.15 152.714 123.918 153.504 123.455C154.296 122.991 154.923 122.358 155.387 121.554C155.851 120.75 156.083 119.857 156.083 118.876V116.545C153.218 116.763 151.199 117.227 150.026 117.935C148.853 118.644 148.266 119.789 148.266 121.37C148.266 123.223 149.153 124.15 150.926 124.15ZM176.361 126.562C175.024 126.562 173.878 126.071 172.923 125.09C171.968 124.109 171.491 122.705 171.491 120.879V108.859L169.117 108.94C168.953 108.94 168.817 108.866 168.708 108.715C168.599 108.566 168.544 108.395 168.544 108.205C168.544 107.959 168.592 107.748 168.688 107.571C168.783 107.394 168.926 107.291 169.117 107.264C170.072 107.073 170.816 106.767 171.347 106.344C171.88 105.922 172.268 105.458 172.514 104.954C172.759 104.45 173.059 103.68 173.414 102.644C173.55 102.29 173.851 102.112 174.315 102.112C174.506 102.112 174.696 102.16 174.887 102.256C175.078 102.351 175.174 102.494 175.174 102.685L174.887 107.346L179.676 107.06H179.757C180.112 107.06 180.289 107.319 180.289 107.837C180.289 108.137 180.241 108.416 180.146 108.675C180.05 108.934 179.935 109.063 179.798 109.063L175.215 108.94V121.37C175.215 122.269 175.399 123.019 175.767 123.618C176.135 124.218 176.742 124.518 177.588 124.518C178.434 124.518 179.184 124.368 179.839 124.068C180.194 123.932 180.412 123.863 180.494 123.863C180.685 123.863 180.835 123.939 180.944 124.088C181.053 124.238 181.162 124.436 181.272 124.681C181.299 124.736 181.313 124.804 181.313 124.886C181.313 124.995 181.23 125.118 181.067 125.254C180.276 125.771 179.532 126.119 178.836 126.296C178.141 126.474 177.316 126.562 176.361 126.562ZM197.416 126.358C195.561 126.358 194.088 125.799 192.997 124.681C191.905 123.564 191.36 122.092 191.36 120.266V112.702C191.36 111.993 191.339 111.475 191.298 111.148C191.258 110.821 191.087 110.535 190.787 110.29C190.487 110.044 189.982 109.922 189.272 109.922C188.945 109.922 188.7 109.874 188.536 109.779C188.372 109.683 188.29 109.458 188.29 109.104C188.29 108.94 188.345 108.784 188.454 108.634C188.563 108.484 188.727 108.395 188.945 108.368C190.664 108.123 192.137 107.769 193.365 107.305C193.747 107.169 194.061 107.087 194.306 107.06H194.429C194.866 107.06 195.084 107.319 195.084 107.837V120.225C195.084 121.478 195.48 122.439 196.27 123.107C197.062 123.775 197.976 124.109 199.012 124.109C200.295 124.109 201.386 123.795 202.286 123.169C203.187 122.542 203.787 121.915 204.087 121.288V112.702C204.087 111.993 204.066 111.475 204.026 111.148C203.985 110.821 203.814 110.535 203.514 110.29C203.214 110.044 202.709 109.922 202 109.922C201.672 109.922 201.427 109.874 201.263 109.779C201.1 109.683 201.018 109.458 201.018 109.104C201.018 108.94 201.072 108.784 201.181 108.634C201.29 108.484 201.454 108.395 201.672 108.368C203.391 108.123 204.864 107.769 206.092 107.305C206.474 107.169 206.788 107.087 207.034 107.06H207.156C207.593 107.06 207.811 107.319 207.811 107.837V121.983C207.811 123.591 208.889 124.395 211.044 124.395C211.508 124.395 211.74 124.654 211.74 125.172C211.74 125.554 211.508 125.785 211.044 125.867L204.455 126.317C204.265 126.317 204.155 126.255 204.128 126.133C204.101 126.01 204.087 125.799 204.087 125.499V123.21H204.005C203.214 123.946 202.573 124.511 202.082 124.906C201.591 125.302 200.956 125.642 200.179 125.928C199.401 126.215 198.48 126.358 197.416 126.358ZM225.47 126.358C223.288 126.358 221.514 125.976 220.15 125.213C218.786 124.45 218.104 123.373 218.104 121.983C218.104 121.193 218.343 120.552 218.82 120.061C219.298 119.57 219.918 119.325 220.682 119.325C221.118 119.325 221.507 119.448 221.848 119.693C222.19 119.938 222.36 120.129 222.36 120.266C222.36 120.293 222.203 120.47 221.889 120.797C221.576 121.124 221.419 121.588 221.419 122.187C221.419 123.005 221.794 123.653 222.544 124.13C223.295 124.606 224.379 124.845 225.798 124.845C227.08 124.845 228.083 124.566 228.806 124.007C229.529 123.448 229.89 122.664 229.89 121.656C229.89 120.974 229.685 120.416 229.276 119.979C228.867 119.544 228.355 119.203 227.741 118.957C227.127 118.712 226.275 118.426 225.184 118.099C223.847 117.717 222.756 117.336 221.91 116.954C221.064 116.572 220.341 116 219.741 115.237C219.141 114.474 218.84 113.479 218.84 112.252C218.84 111.107 219.195 110.126 219.905 109.308C220.614 108.491 221.535 107.878 222.667 107.469C223.799 107.06 224.993 106.855 226.248 106.855C227.857 106.855 229.256 107.196 230.442 107.878C231.629 108.559 232.222 109.513 232.222 110.739C232.222 111.475 231.998 112.102 231.547 112.62C231.097 113.138 230.504 113.397 229.767 113.397C229.331 113.397 228.942 113.274 228.601 113.029C228.26 112.784 228.089 112.593 228.089 112.456C228.089 112.43 228.199 112.32 228.416 112.13C228.635 111.939 228.833 111.714 229.01 111.455C229.188 111.196 229.276 110.89 229.276 110.535C229.222 109.799 228.853 109.227 228.171 108.818C227.489 108.409 226.684 108.205 225.757 108.205C224.72 108.205 223.813 108.443 223.035 108.92C222.258 109.397 221.869 110.058 221.869 110.903C221.869 111.666 222.032 112.272 222.36 112.723C222.687 113.172 223.178 113.533 223.833 113.806C224.488 114.079 225.525 114.447 226.943 114.91C228.39 115.373 229.521 115.803 230.34 116.197C231.159 116.593 231.807 117.124 232.284 117.792C232.761 118.46 233 119.339 233 120.429C233 121.547 232.673 122.562 232.018 123.475C231.363 124.388 230.463 125.097 229.317 125.601C228.171 126.106 226.889 126.358 225.47 126.358Z" fill="#333333"/>
</svg>