<svg width="237" height="140" viewBox="0 0 237 140" fill="none" xmlns="http://www.w3.org/2000/svg">
<path fill-rule="evenodd" clip-rule="evenodd" d="M83.0325 87.8629C72.1732 98.0851 55.2535 94.2079 49.6259 82.5039C47.8566 78.8192 47.6125 74.2962 48.9471 70.2391C50.6553 65.0622 59.3945 57.2852 64.8931 60.9361C70.7865 64.8943 57.2699 78.771 55.9049 81.2559C61.951 77.3675 70.9167 68.3217 67.8879 60.1961C63.6026 49.5743 30.014 65.5834 47.0214 88.9951C56.0681 101.45 75.5602 104.195 87.987 91.8503C86.1913 90.6089 84.5087 89.2948 83.0325 87.8629ZM92.9804 85.2424C98.1064 75.7131 96.896 64.6963 89.6094 56.7931C89.1636 57.1231 88.7026 57.4936 88.2245 57.9092C87.1576 58.8368 86.2262 59.8982 85.4533 61.0578C89.9299 67.0727 92.1131 73.5477 88.0021 81.303C88.2284 81.5359 88.4612 81.7639 88.6987 81.9855C89.8997 83.1045 91.3891 84.1989 92.9804 85.2424ZM85.5202 52.6181C79.7794 46.9933 72.7481 40.6982 69.7138 35.97C66.6945 31.269 64.9252 24.9269 66.7048 18.5857C68.2763 12.9872 72.2193 8.81308 76.7299 6.54804C84.5133 2.63311 87.874 4.70795 95.5416 5.61751C81.761 -4.16912 54.3004 9.66817 63.4952 34.5089C66.4126 42.3913 74.7626 49.1304 81.3537 56.2097C82.5904 54.8702 83.9941 53.6588 85.5202 52.6181ZM0 101.298C12.2856 100.718 25.0566 101.173 37.5845 94.1909L39.7384 92.4065C33.3331 94.3692 28.5069 96.6259 21.3568 98.1511C14.2708 99.6677 7.34422 100.139 0 101.298ZM105.782 16.3912C104.644 22.92 96.2259 39.9404 89.7846 34.0997C84.9612 25.4104 101.886 6.03413 117.096 2.67558C121.892 1.42464 122.954 1.36155 134.78 1.059C119.026 -3.28106 100.419 6.29525 91.323 19.2766C76.072 41.0386 103.515 45.3512 105.782 16.3912Z" fill="white"/>
<path fill-rule="evenodd" clip-rule="evenodd" d="M112.429 120.693C107.082 135.695 89.5698 137.638 81.0029 128.583C87.7363 124.143 97.2109 113.34 91.1639 104.626C85.622 97.0772 63.6781 114.388 75.614 129.994C74.9747 130.341 74.3121 130.686 73.6184 131.03C67.8493 133.891 61.9897 135.82 55.9209 138.432C62.7608 136.339 69.8798 134.581 76.5754 131.157C77.422 132.117 78.3965 133.07 79.5249 134.007C90.9168 143.461 110.341 140.439 117.196 123.942C120.185 116.748 120.549 107.073 113.997 100.937C104.755 92.6666 93.5724 89.1044 87.413 83.3644C83.781 79.9794 80.8616 74.9069 81.001 69.055C81.1247 63.8893 83.6019 59.4296 86.9879 56.4866C92.8304 51.4068 96.1807 52.4559 102.983 51.5528C88.9646 46.1542 68.3603 64.1033 81.7374 83.473C90.7764 96.5616 119.886 99.7723 112.429 120.693ZM79.9812 127.394C77.8866 124.655 76.8176 121.02 77.0627 117.435C77.3955 112.596 83.2361 103.928 88.7657 105.926C97.0073 108.85 85.4637 123.881 79.9812 127.394Z" fill="white"/>
<path fill-rule="evenodd" clip-rule="evenodd" d="M113.305 59.0244C114.066 68.9059 110.904 81.9399 98.6475 81.9399C105.268 90.9897 116.022 74.6716 113.305 59.0244Z" fill="white"/>
<path fill-rule="evenodd" clip-rule="evenodd" d="M133.937 139C132.579 139 131.416 138.478 130.446 137.435C129.477 136.391 128.992 134.899 128.992 132.957V120.174L126.582 120.261C126.415 120.261 126.277 120.182 126.166 120.022C126.055 119.863 126 119.681 126 119.478C126 119.218 126.048 118.993 126.145 118.805C126.242 118.616 126.388 118.507 126.582 118.479C127.551 118.275 128.306 117.949 128.846 117.5C129.387 117.051 129.781 116.558 130.031 116.022C130.28 115.486 130.585 114.667 130.945 113.565C131.083 113.188 131.388 113 131.86 113C132.053 113 132.247 113.051 132.441 113.152C132.635 113.254 132.732 113.406 132.732 113.609L132.441 118.565L137.303 118.261H137.386C137.747 118.261 137.927 118.536 137.927 119.087C137.927 119.406 137.878 119.703 137.781 119.979C137.684 120.254 137.566 120.391 137.428 120.391L132.773 120.261V133.479C132.773 134.435 132.96 135.232 133.334 135.87C133.708 136.507 134.325 136.826 135.184 136.826C136.043 136.826 136.805 136.667 137.47 136.348C137.83 136.203 138.051 136.13 138.134 136.13C138.329 136.13 138.481 136.211 138.592 136.37C138.703 136.529 138.813 136.739 138.924 137C138.952 137.059 138.966 137.131 138.966 137.218C138.966 137.334 138.882 137.464 138.716 137.609C137.913 138.159 137.158 138.529 136.451 138.718C135.745 138.906 134.907 139 133.937 139ZM152.327 138.783C150.664 138.783 149.321 138.29 148.295 137.304C147.271 136.319 146.758 135.087 146.758 133.609C146.758 131.783 147.34 130.413 148.504 129.5C149.667 128.587 151.052 127.993 152.659 127.717C154.266 127.442 156.344 127.232 158.892 127.087V123.652C158.892 122.232 158.553 121.153 157.874 120.413C157.196 119.674 156.108 119.304 154.612 119.304C153.753 119.304 153.005 119.58 152.368 120.131C151.731 120.681 151.412 121.421 151.412 122.348C151.412 122.812 151.516 123.196 151.724 123.5C151.932 123.804 152.153 124.058 152.389 124.261C152.624 124.464 152.742 124.58 152.742 124.609C152.742 124.783 152.569 125.008 152.223 125.283C151.876 125.558 151.454 125.696 150.955 125.696C150.124 125.696 149.466 125.377 148.981 124.739C148.497 124.102 148.254 123.348 148.254 122.478C148.254 120.971 148.898 119.855 150.187 119.131C151.475 118.406 153.033 118.044 154.862 118.044C157.133 118.044 158.983 118.493 160.41 119.392C161.836 120.29 162.55 121.957 162.55 124.391V134.522C162.578 135.131 162.757 135.71 163.09 136.261C163.422 136.812 163.963 137.087 164.711 137.087C164.932 137.087 165.092 137.131 165.188 137.218C165.285 137.304 165.334 137.493 165.334 137.783C165.334 138.131 165.078 138.384 164.565 138.543C164.052 138.703 163.547 138.783 163.048 138.783C161.995 138.783 161.067 138.464 160.264 137.826C159.461 137.189 159.003 136.333 158.892 135.261C158.311 136.391 157.418 137.261 156.212 137.87C155.007 138.478 153.712 138.783 152.327 138.783ZM153.656 136.435C154.599 136.435 155.471 136.189 156.274 135.696C157.078 135.203 157.715 134.529 158.186 133.674C158.657 132.819 158.892 131.87 158.892 130.826V128.348C155.984 128.58 153.934 129.073 152.742 129.826C151.551 130.58 150.955 131.797 150.955 133.479C150.955 135.45 151.855 136.435 153.656 136.435ZM179.484 139C178.127 139 176.963 138.478 175.993 137.435C175.023 136.391 174.539 134.899 174.539 132.957V120.174L172.129 120.261C171.962 120.261 171.824 120.182 171.713 120.022C171.602 119.863 171.547 119.681 171.547 119.478C171.547 119.218 171.595 118.993 171.692 118.805C171.789 118.616 171.935 118.507 172.129 118.479C173.098 118.275 173.853 117.949 174.393 117.5C174.934 117.051 175.328 116.558 175.578 116.022C175.827 115.486 176.132 114.667 176.492 113.565C176.631 113.188 176.935 113 177.407 113C177.6 113 177.794 113.051 177.988 113.152C178.182 113.254 178.279 113.406 178.279 113.609L177.988 118.565L182.85 118.261H182.933C183.293 118.261 183.474 118.536 183.474 119.087C183.474 119.406 183.425 119.703 183.328 119.979C183.231 120.254 183.113 120.391 182.975 120.391L178.32 120.261V133.479C178.32 134.435 178.507 135.232 178.881 135.87C179.255 136.507 179.872 136.826 180.731 136.826C181.59 136.826 182.352 136.667 183.017 136.348C183.377 136.203 183.598 136.13 183.681 136.13C183.876 136.13 184.028 136.211 184.139 136.37C184.25 136.529 184.36 136.739 184.471 137C184.499 137.059 184.513 137.131 184.513 137.218C184.513 137.334 184.429 137.464 184.263 137.609C183.46 138.159 182.705 138.529 181.998 138.718C181.292 138.906 180.454 139 179.484 139ZM200.866 138.783C198.982 138.783 197.486 138.189 196.378 137C195.269 135.812 194.715 134.246 194.715 132.305V124.261C194.715 123.508 194.695 122.957 194.653 122.609C194.612 122.261 194.438 121.957 194.134 121.696C193.829 121.435 193.316 121.305 192.596 121.305C192.264 121.305 192.014 121.254 191.848 121.153C191.682 121.051 191.598 120.812 191.598 120.435C191.598 120.261 191.654 120.094 191.765 119.935C191.876 119.775 192.041 119.681 192.263 119.653C194.009 119.392 195.505 119.015 196.752 118.522C197.139 118.377 197.458 118.29 197.707 118.261H197.832C198.276 118.261 198.497 118.536 198.497 119.087V132.261C198.497 133.594 198.899 134.616 199.702 135.326C200.505 136.037 201.434 136.391 202.487 136.391C203.789 136.391 204.897 136.058 205.811 135.391C206.725 134.725 207.335 134.059 207.64 133.391V124.261C207.64 123.508 207.619 122.957 207.577 122.609C207.536 122.261 207.362 121.957 207.058 121.696C206.753 121.435 206.24 121.305 205.52 121.305C205.188 121.305 204.938 121.254 204.772 121.153C204.606 121.051 204.523 120.812 204.523 120.435C204.523 120.261 204.578 120.094 204.689 119.935C204.8 119.775 204.966 119.681 205.188 119.653C206.933 119.392 208.429 119.015 209.676 118.522C210.064 118.377 210.382 118.29 210.632 118.261H210.756C211.2 118.261 211.421 118.536 211.421 119.087V134.131C211.421 135.841 212.516 136.696 214.704 136.696C215.175 136.696 215.411 136.971 215.411 137.522C215.411 137.928 215.175 138.174 214.704 138.261L208.014 138.739C207.82 138.739 207.709 138.674 207.681 138.543C207.653 138.413 207.64 138.189 207.64 137.87V135.435H207.556C206.753 136.218 206.102 136.819 205.603 137.239C205.105 137.66 204.461 138.022 203.671 138.326C202.881 138.631 201.946 138.783 200.866 138.783ZM229.353 138.783C227.137 138.783 225.337 138.377 223.951 137.565C222.566 136.754 221.873 135.609 221.873 134.131C221.873 133.29 222.116 132.609 222.601 132.087C223.086 131.565 223.716 131.304 224.491 131.304C224.934 131.304 225.33 131.435 225.676 131.696C226.022 131.957 226.195 132.159 226.195 132.305C226.195 132.334 226.036 132.522 225.717 132.87C225.399 133.218 225.239 133.71 225.239 134.348C225.239 135.217 225.62 135.906 226.382 136.413C227.144 136.92 228.246 137.174 229.686 137.174C230.988 137.174 232.006 136.877 232.741 136.283C233.475 135.689 233.842 134.855 233.842 133.783C233.842 133.058 233.634 132.464 233.218 132C232.803 131.537 232.283 131.174 231.66 130.913C231.036 130.652 230.171 130.348 229.063 130C227.705 129.594 226.597 129.189 225.738 128.783C224.88 128.377 224.145 127.768 223.536 126.957C222.926 126.145 222.621 125.087 222.621 123.783C222.621 122.565 222.981 121.522 223.702 120.652C224.422 119.783 225.357 119.131 226.507 118.696C227.657 118.261 228.869 118.044 230.143 118.044C231.778 118.044 233.198 118.406 234.403 119.131C235.608 119.855 236.21 120.87 236.21 122.174C236.21 122.957 235.982 123.623 235.525 124.174C235.068 124.725 234.465 125 233.717 125C233.274 125 232.879 124.87 232.533 124.609C232.187 124.348 232.013 124.145 232.013 124C232.013 123.971 232.124 123.855 232.345 123.652C232.567 123.45 232.768 123.21 232.948 122.935C233.128 122.66 233.218 122.334 233.218 121.957C233.163 121.174 232.789 120.566 232.096 120.131C231.404 119.696 230.586 119.478 229.644 119.478C228.592 119.478 227.67 119.732 226.881 120.239C226.091 120.746 225.697 121.449 225.697 122.348C225.697 123.159 225.863 123.804 226.195 124.283C226.528 124.761 227.026 125.145 227.691 125.435C228.356 125.725 229.409 126.116 230.849 126.609C232.318 127.102 233.468 127.558 234.299 127.978C235.13 128.399 235.788 128.964 236.273 129.674C236.758 130.384 237 131.319 237 132.478C237 133.667 236.668 134.747 236.003 135.718C235.338 136.689 234.424 137.442 233.26 137.979C232.096 138.515 230.795 138.783 229.353 138.783Z" fill="white"/>
</svg>