<svg width="162" height="89" viewBox="0 0 162 89" fill="none" xmlns="http://www.w3.org/2000/svg">
<path fill-rule="evenodd" clip-rule="evenodd" d="M56.6978 56.1254C49.2826 62.6552 37.7292 60.1785 33.8865 52.7022C32.6783 50.3484 32.5116 47.4592 33.423 44.8676C34.5894 41.5607 40.5569 36.5929 44.3115 38.925C48.3357 41.4535 39.1061 50.3177 38.174 51.905C42.3025 49.4211 48.4246 43.6428 46.3565 38.4523C43.4303 31.6673 20.4947 41.8936 32.108 56.8486C38.2854 64.8049 51.5954 66.5583 60.0809 58.6725C58.8547 57.8795 57.7057 57.0401 56.6978 56.1254ZM63.4905 54.4515C66.9908 48.3643 66.1643 41.327 61.1887 36.2786C60.8843 36.4893 60.5695 36.726 60.2431 36.9915C59.5145 37.584 58.8785 38.262 58.3507 39.0027C61.4076 42.845 62.8983 46.9811 60.0912 51.9351C60.2457 52.0838 60.4047 52.2295 60.5669 52.371C61.387 53.0858 62.404 53.7849 63.4905 54.4515ZM58.3964 33.6116C54.4764 30.0186 49.6752 25.9974 47.6032 22.9771C45.5416 19.9741 44.3334 15.9229 45.5485 11.8722C46.6216 8.29602 49.3141 5.62965 52.3941 4.18278C57.7089 1.68199 60.0037 3.00737 65.2394 3.58837C55.8295 -2.66317 37.0784 6.17588 43.3569 22.0437C45.3491 27.0789 51.0508 31.3837 55.5514 35.9059C56.3959 35.0502 57.3544 34.2764 58.3964 33.6116ZM0 64.7079C8.38905 64.3369 17.1096 64.6278 25.6641 60.1677L27.1349 59.0278C22.7611 60.2815 19.4656 61.7231 14.5832 62.6974C9.74462 63.6661 5.01491 63.9673 0 64.7079ZM72.2317 10.4704C71.4547 14.6409 65.7067 25.5133 61.3084 21.7824C58.0147 16.2318 69.5719 3.8545 79.9578 1.70912C83.2328 0.910035 83.9576 0.869734 92.0331 0.676471C81.2753 -2.09589 68.5697 4.0213 62.3588 12.3136C51.9449 26.2148 70.6842 28.9697 72.2317 10.4704Z" fill="white"/>
<path fill-rule="evenodd" clip-rule="evenodd" d="M76.7711 77.097C73.1202 86.6797 61.1618 87.9208 55.312 82.137C59.9099 79.3003 66.3795 72.3997 62.2503 66.8335C58.4661 62.0114 43.482 73.0693 51.6322 83.0379C51.1957 83.2601 50.7432 83.4805 50.2696 83.7002C46.3302 85.5277 42.3291 86.7597 38.1851 88.4283C42.8556 87.091 47.7167 85.968 52.2887 83.7809C52.8668 84.3945 53.5323 85.0033 54.3028 85.6018C62.0816 91.6408 75.3453 89.7103 80.0261 79.1721C82.0672 74.5765 82.3157 68.3966 77.8414 64.4767C71.5309 59.194 63.8949 56.9185 59.6891 53.2519C57.209 51.0896 55.2156 47.8494 55.3107 44.1112C55.3952 40.8115 57.0867 37.9627 59.3988 36.0828C63.3883 32.8378 65.676 33.508 70.3207 32.9311C60.7486 29.4826 46.6791 40.9482 55.8136 53.3212C61.9857 61.682 81.8632 63.733 76.7711 77.097ZM54.6144 81.3772C53.1841 79.628 52.4541 77.3055 52.6215 75.0154C52.8487 71.9247 56.8369 66.3873 60.6127 67.6638C66.2405 69.5316 58.358 79.133 54.6144 81.3772Z" fill="white"/>
<path fill-rule="evenodd" clip-rule="evenodd" d="M77.3688 37.7039C77.8881 44.016 75.7293 52.3419 67.3599 52.3419C71.8804 58.1228 79.2237 47.6991 77.3688 37.7039Z" fill="white"/>
<path fill-rule="evenodd" clip-rule="evenodd" d="M91.4345 88C90.5049 88 89.7084 87.6589 89.0444 86.9766C88.3804 86.2943 88.0486 85.3183 88.0486 84.0487V75.6909L86.3982 75.7476C86.2843 75.7476 86.1896 75.6956 86.1136 75.5911C86.0379 75.4871 86 75.3686 86 75.2359C86 75.0653 86.0329 74.9183 86.0995 74.7954C86.166 74.6722 86.2655 74.601 86.3982 74.5822C87.0623 74.4493 87.5792 74.2361 87.9488 73.9426C88.3188 73.6488 88.589 73.3265 88.7597 72.9759C88.9304 72.6254 89.1391 72.0899 89.3858 71.3696C89.4806 71.1232 89.6893 71 90.0119 71C90.1447 71 90.2774 71.0332 90.4102 71.0996C90.5429 71.1658 90.6094 71.2656 90.6094 71.3981L90.4102 74.6389L93.7392 74.4398H93.796C94.0427 74.4398 94.166 74.6199 94.166 74.9801C94.166 75.1886 94.1327 75.3827 94.0665 75.5629C94 75.743 93.9193 75.8329 93.8246 75.8329L90.6377 75.7476V84.3899C90.6377 85.015 90.7657 85.5366 91.0218 85.9532C91.2779 86.3702 91.6999 86.5787 92.2881 86.5787C92.8762 86.5787 93.3977 86.4747 93.8531 86.2661C94.0998 86.1711 94.2514 86.1237 94.3082 86.1237C94.4413 86.1237 94.5454 86.1762 94.6214 86.2802C94.6974 86.3843 94.7729 86.522 94.8489 86.6925C94.8681 86.7306 94.8775 86.7778 94.8775 86.8346C94.8775 86.9105 94.8203 86.9958 94.7067 87.0904C94.1566 87.4504 93.6397 87.6921 93.1558 87.8153C92.6722 87.9386 92.0985 88 91.4345 88ZM104.025 87.858C102.887 87.858 101.967 87.5357 101.265 86.8913C100.564 86.247 100.213 85.4415 100.213 84.4752C100.213 83.2812 100.611 82.3857 101.408 81.7887C102.204 81.1917 103.153 80.8029 104.253 80.6229C105.353 80.443 106.776 80.3057 108.521 80.2109V77.965C108.521 77.0363 108.289 76.3305 107.824 75.847C107.359 75.3638 106.615 75.1221 105.59 75.1221C105.002 75.1221 104.49 75.3021 104.054 75.6623C103.617 76.0223 103.399 76.5058 103.399 77.1122C103.399 77.4154 103.471 77.6665 103.613 77.8656C103.755 78.0644 103.907 78.2303 104.068 78.3629C104.229 78.4955 104.31 78.5715 104.31 78.5905C104.31 78.704 104.191 78.8511 103.954 79.0311C103.717 79.2111 103.428 79.301 103.086 79.301C102.518 79.301 102.067 79.0925 101.735 78.6758C101.403 78.2589 101.237 77.7659 101.237 77.1974C101.237 76.2121 101.678 75.4824 102.56 75.0086C103.442 74.5346 104.509 74.2978 105.761 74.2978C107.316 74.2978 108.583 74.5916 109.56 75.1792C110.537 75.7664 111.025 76.8563 111.025 78.4482V85.0721C111.044 85.47 111.167 85.8492 111.395 86.209C111.622 86.5693 111.992 86.7493 112.505 86.7493C112.656 86.7493 112.765 86.7778 112.832 86.8346C112.898 86.8913 112.931 87.0146 112.931 87.2043C112.931 87.4316 112.756 87.5975 112.405 87.7015C112.054 87.806 111.708 87.858 111.366 87.858C110.645 87.858 110.01 87.6495 109.46 87.2324C108.91 86.8158 108.597 86.2564 108.521 85.5553C108.123 86.2943 107.511 86.8631 106.686 87.261C105.861 87.6589 104.974 87.858 104.025 87.858ZM104.936 86.3229C105.581 86.3229 106.179 86.1618 106.728 85.8397C107.278 85.5174 107.715 85.0769 108.037 84.5178C108.36 83.9588 108.521 83.3379 108.521 82.6556V81.0352C106.529 81.1867 105.126 81.509 104.31 82.0019C103.494 82.4945 103.086 83.2906 103.086 84.3899C103.086 85.6786 103.703 86.3229 104.936 86.3229ZM122.62 88C121.69 88 120.894 87.6589 120.23 86.9766C119.566 86.2943 119.234 85.3183 119.234 84.0487V75.6909L117.584 75.7476C117.47 75.7476 117.375 75.6956 117.299 75.5911C117.223 75.4871 117.185 75.3686 117.185 75.2359C117.185 75.0653 117.218 74.9183 117.285 74.7954C117.351 74.6722 117.451 74.601 117.584 74.5822C118.248 74.4493 118.765 74.2361 119.134 73.9426C119.504 73.6488 119.774 73.3265 119.945 72.9759C120.116 72.6254 120.324 72.0899 120.571 71.3696C120.666 71.1232 120.875 71 121.197 71C121.33 71 121.463 71.0332 121.596 71.0996C121.728 71.1658 121.795 71.2656 121.795 71.3981L121.596 74.6389L124.925 74.4398H124.981C125.228 74.4398 125.351 74.6199 125.351 74.9801C125.351 75.1886 125.318 75.3827 125.252 75.5629C125.185 75.743 125.105 75.8329 125.01 75.8329L121.823 75.7476V84.3899C121.823 85.015 121.951 85.5366 122.207 85.9532C122.463 86.3702 122.885 86.5787 123.473 86.5787C124.061 86.5787 124.583 86.4747 125.039 86.2661C125.285 86.1711 125.437 86.1237 125.494 86.1237C125.627 86.1237 125.731 86.1762 125.807 86.2802C125.883 86.3843 125.958 86.522 126.034 86.6925C126.053 86.7306 126.063 86.7778 126.063 86.8346C126.063 86.9105 126.006 86.9958 125.892 87.0904C125.342 87.4504 124.825 87.6921 124.341 87.8153C123.858 87.9386 123.284 88 122.62 88ZM137.259 87.858C135.97 87.858 134.945 87.4696 134.186 86.6925C133.428 85.9153 133.048 84.8919 133.048 83.6223V78.3629C133.048 77.8704 133.034 77.51 133.006 77.2827C132.977 77.0554 132.859 76.8563 132.65 76.6857C132.441 76.5152 132.09 76.4299 131.597 76.4299C131.37 76.4299 131.199 76.3967 131.085 76.3305C130.971 76.2641 130.914 76.1076 130.914 75.8614C130.914 75.7476 130.952 75.6385 131.028 75.5344C131.104 75.43 131.218 75.3686 131.37 75.3497C132.565 75.1792 133.589 74.9328 134.443 74.6104C134.708 74.5157 134.926 74.459 135.097 74.4398H135.182C135.486 74.4398 135.638 74.6199 135.638 74.9801V83.5938C135.638 84.4654 135.913 85.1336 136.463 85.5979C137.013 86.0624 137.648 86.2943 138.369 86.2943C139.261 86.2943 140.02 86.0765 140.645 85.6406C141.271 85.2048 141.689 84.769 141.897 84.3328V78.3629C141.897 77.8704 141.883 77.51 141.855 77.2827C141.826 77.0554 141.708 76.8563 141.499 76.6857C141.29 76.5152 140.939 76.4299 140.446 76.4299C140.219 76.4299 140.048 76.3967 139.934 76.3305C139.82 76.2641 139.763 76.1076 139.763 75.8614C139.763 75.7476 139.801 75.6385 139.877 75.5344C139.953 75.43 140.067 75.3686 140.219 75.3497C141.414 75.1792 142.438 74.9328 143.291 74.6104C143.557 74.5157 143.775 74.459 143.946 74.4398H144.031C144.335 74.4398 144.486 74.6199 144.486 74.9801V84.8163C144.486 85.9345 145.236 86.4934 146.734 86.4934C147.057 86.4934 147.218 86.6735 147.218 87.0337C147.218 87.299 147.057 87.4601 146.734 87.5168L142.154 87.8294C142.021 87.8294 141.945 87.7868 141.926 87.7015C141.907 87.6162 141.897 87.4696 141.897 87.261V85.6691H141.84C141.29 86.1808 140.845 86.5741 140.503 86.8487C140.162 87.1237 139.721 87.3604 139.18 87.5595C138.639 87.7586 137.999 87.858 137.259 87.858ZM156.764 87.858C155.247 87.858 154.014 87.5928 153.066 87.0619C152.117 86.5314 151.643 85.7826 151.643 84.8163C151.643 84.2667 151.809 83.8211 152.141 83.4799C152.473 83.1388 152.905 82.9682 153.435 82.9682C153.739 82.9682 154.009 83.0535 154.246 83.2241C154.484 83.3947 154.602 83.5273 154.602 83.6223C154.602 83.6411 154.493 83.7643 154.275 83.9916C154.057 84.2193 153.948 84.5414 153.948 84.9583C153.948 85.5268 154.208 85.9771 154.73 86.3088C155.252 86.6402 156.006 86.806 156.992 86.806C157.884 86.806 158.581 86.612 159.084 86.2235C159.586 85.8351 159.837 85.2901 159.837 84.5886C159.837 84.1149 159.695 83.7264 159.411 83.4232C159.126 83.1201 158.77 82.8829 158.344 82.7124C157.917 82.5418 157.324 82.343 156.566 82.1154C155.636 81.8502 154.877 81.585 154.289 81.3196C153.701 81.0541 153.199 80.6562 152.781 80.1256C152.364 79.5949 152.155 78.9031 152.155 78.0503C152.155 77.2542 152.402 76.5719 152.895 76.0035C153.388 75.435 154.028 75.0086 154.816 74.7242C155.603 74.4398 156.433 74.2978 157.305 74.2978C158.424 74.2978 159.397 74.5346 160.222 75.0086C161.047 75.4824 161.459 76.1455 161.459 76.9983C161.459 77.51 161.303 77.9459 160.99 78.3061C160.677 78.6661 160.264 78.8464 159.752 78.8464C159.449 78.8464 159.179 78.7611 158.941 78.5905C158.704 78.42 158.586 78.2871 158.586 78.1923C158.586 78.1736 158.662 78.0977 158.813 77.965C158.965 77.8324 159.103 77.676 159.226 77.4959C159.349 77.316 159.411 77.1028 159.411 76.8563C159.373 76.3446 159.117 75.9467 158.642 75.6623C158.168 75.3779 157.609 75.2359 156.964 75.2359C156.243 75.2359 155.612 75.4019 155.072 75.7335C154.531 76.0649 154.261 76.5246 154.261 77.1122C154.261 77.6427 154.374 78.0644 154.602 78.3773C154.83 78.6899 155.171 78.9411 155.627 79.1304C156.082 79.3202 156.803 79.576 157.789 79.898C158.794 80.2204 159.581 80.5189 160.151 80.7935C160.72 81.0685 161.17 81.4378 161.502 81.9022C161.834 82.3666 162 82.9781 162 83.7358C162 84.5132 161.773 85.2189 161.317 85.8538C160.862 86.4888 160.236 86.9813 159.439 87.3322C158.642 87.6828 157.751 87.858 156.764 87.858Z" fill="white"/>
</svg>